<?xml version="1.0" encoding="iso-8859-1"?>
<!-- Generator: Adobe Illustrator 19.0.0, SVG Export Plug-In . SVG Version: 6.00 Build 0)  -->
<svg xmlns="http://www.w3.org/2000/svg" xmlns:xlink="http://www.w3.org/1999/xlink" version="1.1" id="Capa_1" x="0px" y="0px" viewBox="0 0 481.824 481.824" style="enable-background:new 0 0 481.824 481.824;" xml:space="preserve" width="512px" height="512px">
<g>
	<g>
		<path d="M381.432,156.655c-1.334-1.4-3.13-2.27-5.056-2.448l-86.4-7.816h-33.008l1.6-24.312l31.28-6.256l43.672,9.752    c0.881,0.199,1.79,0.248,2.688,0.144l42.488-5.064l-1.896-15.896l-41.128,4.904l-44-9.824c-1.094-0.236-2.226-0.236-3.32,0    l-29.92,5.984c-4.605-8.262-10.637-15.642-17.816-21.8l36.656-18.312l36.664,14.664l5.952-14.864l-40-16    c-2.124-0.841-4.505-0.743-6.552,0.272l-48,24l0.112,0.232c-6.923-3.586-14.336-6.136-22-7.568l67.2-48.88l130.736,30.736    L472,103.223l9.824-12.624l-72-56c-0.91-0.707-1.96-1.212-3.08-1.48l-136-32c-2.267-0.524-4.65-0.042-6.536,1.32l-87.296,63.472    c-43.653,6.65-73.649,47.429-66.998,91.082s47.429,73.649,91.082,66.998c32.597-4.966,58.803-29.435,65.989-61.616h22.256    l82.696,7.512l42.576,44.544c1.508,1.582,3.598,2.478,5.784,2.48h56.616v-16H423.68L381.432,156.655z M171.373,206.784    c-34.097-9.579-53.972-44.986-44.393-79.083c9.579-34.097,44.986-53.972,79.083-44.393c15.801,4.439,29.298,14.768,37.713,28.859    l-0.024-0.008c-0.401,0.864-0.642,1.794-0.712,2.744l-2.6,38.952c-0.296,4.408,3.038,8.222,7.446,8.518    c0.184,0.012,0.369,0.018,0.554,0.018h2.016C240.877,196.488,205.47,216.364,171.373,206.784z" fill="#FFFFFF"/>
	</g>
</g>
<g>
	<g>
		<path d="M220.912,130.719v-2.152c-1.042-12.662-11.31-22.588-24-23.2v-8.456h-16v8.408c-12.69,0.612-22.958,10.538-24,23.2    c1.101,12.56,11.209,22.434,23.792,23.24l14.072,2.08c6.344,0.936,10.136,4.512,10.136,7.416c0,3.6-5.6,7.632-13.104,7.632h-5.792    c-7.504,0.024-13.104-3.976-13.104-7.608v-2.152h-16v2.152c1.042,12.662,11.31,22.588,24,23.2v8.432h16v-8.408    c12.69-0.612,22.958-10.538,24-23.2c-1.101-12.56-11.209-22.434-23.792-23.24l-14.072-2.08    c-6.344-0.936-10.136-4.512-10.136-7.416c0-3.6,5.6-7.632,13.104-7.632h5.792c7.504,0,13.104,4,13.104,7.632v2.152H220.912z" fill="#FFFFFF"/>
	</g>
</g>
<g>
	<g>
		<path d="M372.086,324.973c-5.887-39.168-39.566-68.121-79.174-68.062c-37.427,0.077-69.826,26.029-78.072,62.536h-22.256    l-82.696-7.496l-42.536-44.56c-1.508-1.582-3.598-2.478-5.784-2.48H4.912v16h53.232l42.248,44.256    c1.334,1.4,3.13,2.27,5.056,2.448l86.4,7.816h32.992l-1.6,24.312l-31.28,6.256l-43.672-9.752c-0.881-0.204-1.79-0.252-2.688-0.144    l-42.488,5.064l1.896,15.896l41.128-4.904l44,9.824c0.575,0.128,1.163,0.192,1.752,0.192c0.537-0.001,1.073-0.052,1.6-0.152    l29.92-5.984c4.605,8.262,10.637,15.642,17.816,21.8l-36.672,18.272l-36.664-14.664l-5.952,14.864l40,16    c2.124,0.843,4.505,0.744,6.552-0.272l48-24l-0.112-0.232c6.923,3.586,14.336,6.136,22,7.568l-67.2,48.88L80.44,433.519    l-70.616-54.92L0,391.223l72,56c0.91,0.707,1.96,1.212,3.08,1.48l136,32c0.601,0.137,1.216,0.206,1.832,0.208    c1.69,0,3.337-0.535,4.704-1.528l87.296-63.472C348.573,409.349,378.648,368.635,372.086,324.973z M354.525,354.391    c-7.82,27.543-32.982,46.541-61.613,46.52c-22.495-0.079-43.304-11.937-54.84-31.248c0.401-0.864,0.642-1.794,0.712-2.744    l2.6-38.952c0.296-4.408-3.038-8.222-7.446-8.518c-0.184-0.012-0.369-0.018-0.554-0.018h-1.992    c9.654-34.002,45.044-53.741,79.047-44.087C344.441,284.999,364.179,320.389,354.525,354.391z" fill="#FFFFFF"/>
	</g>
</g>
<g>
	<g>
		<path d="M331.608,345.197c-1.062-3.07-2.742-5.89-4.936-8.285c8.869-9.683,8.209-24.723-1.475-33.592    c-2.396-2.194-5.215-3.874-8.285-4.936v-9.472h-16v8h-16v-8h-16v8h-8v16h8v48h-8v16h8v8h16v-8h16v8h16v-9.472    C329.321,371.146,335.901,357.606,331.608,345.197z M308.912,360.911h-24v-16h24c4.418,0,8,3.582,8,8    S313.33,360.911,308.912,360.911z M308.912,328.911h-24v-16h24c4.418,0,8,3.582,8,8S313.33,328.911,308.912,328.911z" fill="#FFFFFF"/>
	</g>
</g>
<g>
</g>
<g>
</g>
<g>
</g>
<g>
</g>
<g>
</g>
<g>
</g>
<g>
</g>
<g>
</g>
<g>
</g>
<g>
</g>
<g>
</g>
<g>
</g>
<g>
</g>
<g>
</g>
<g>
</g>
</svg>
