<?xml version="1.0" encoding="iso-8859-1"?>
<!-- Generator: Adobe Illustrator 19.0.0, SVG Export Plug-In . SVG Version: 6.00 Build 0)  -->
<svg xmlns="http://www.w3.org/2000/svg" xmlns:xlink="http://www.w3.org/1999/xlink" version="1.1" id="Capa_1" x="0px" y="0px" viewBox="0 0 512 512" style="enable-background:new 0 0 512 512;" xml:space="preserve" width="512px" height="512px">
<g>
	<g>
		<g>
			<path d="M263.58,85.06h-20.408c-4.143,0-7.5,3.357-7.5,7.5s3.357,7.5,7.5,7.5h8.047v5.888c0,4.142,3.357,7.5,7.5,7.5     c4.142,0,7.5-3.358,7.5-7.5v-6.102c8.778-1.285,15.546-8.843,15.546-17.972c0-10.027-8.157-18.185-18.184-18.185h-9.724     c-1.756,0-3.184-1.429-3.184-3.185c0-1.757,1.429-3.186,3.184-3.186h20.408c4.143,0,7.5-3.357,7.5-7.5s-3.357-7.5-7.5-7.5h-8.046     V36.43c0-4.142-3.358-7.5-7.5-7.5c-4.143,0-7.5,3.358-7.5,7.5v6.101c-8.778,1.285-15.547,8.843-15.547,17.972     c0,10.027,8.157,18.185,18.184,18.185h9.724c1.756,0,3.184,1.429,3.184,3.185C266.765,83.631,265.336,85.06,263.58,85.06z" fill="#FFFFFF"/>
			<path d="M445.672,258.739h-20.408c-4.143,0-7.5,3.357-7.5,7.5s3.357,7.5,7.5,7.5h8.047v5.888c0,4.142,3.358,7.5,7.5,7.5     c4.143,0,7.5-3.358,7.5-7.5v-6.102c8.778-1.285,15.547-8.843,15.547-17.972c0-10.027-8.158-18.185-18.185-18.185h-9.723     c-1.757,0-3.185-1.429-3.185-3.184c0-1.757,1.429-3.186,3.185-3.186h20.408c4.143,0,7.5-3.357,7.5-7.5s-3.357-7.5-7.5-7.5h-8.047     v-5.888c0-4.143-3.357-7.5-7.5-7.5c-4.142,0-7.5,3.357-7.5,7.5v6.102c-8.778,1.285-15.547,8.843-15.547,17.972     c0,10.027,8.158,18.184,18.185,18.184h9.723c1.757,0,3.185,1.429,3.185,3.185C448.857,257.31,447.429,258.739,445.672,258.739z" fill="#FFFFFF"/>
			<circle cx="291.153" cy="477.598" r="7.261" fill="#FFFFFF"/>
			<circle cx="380.261" cy="470.337" r="7.261" fill="#FFFFFF"/>
			<circle cx="234.969" cy="445.135" r="7.261" fill="#FFFFFF"/>
			<path d="M78.689,230.529v-6.102c8.778-1.285,15.547-8.842,15.547-17.971c0-10.027-8.158-18.185-18.186-18.185h-9.723     c-1.757,0-3.186-1.429-3.186-3.186c0-1.756,1.429-3.185,3.186-3.185h20.408c4.143,0,7.5-3.357,7.5-7.5s-3.357-7.5-7.5-7.5h-8.047     v-5.889c0-4.143-3.357-7.5-7.5-7.5s-7.5,3.357-7.5,7.5v6.102c-8.778,1.285-15.547,8.842-15.547,17.971     c0,10.027,8.158,18.186,18.186,18.186h9.723c1.757,0,3.186,1.429,3.186,3.185c0,1.756-1.429,3.184-3.186,3.184H55.643     c-4.143,0-7.5,3.357-7.5,7.5s3.357,7.5,7.5,7.5h8.047v5.889c0,4.143,3.357,7.5,7.5,7.5     C75.332,238.029,78.689,234.672,78.689,230.529z" fill="#FFFFFF"/>
			<path d="M384.765,288.686c13.042,16.645,33.308,27.373,56.045,27.373c39.254,0,71.19-31.936,71.19-71.189     c0-27.757-15.978-51.838-39.211-63.573c2.444-24.608-2.661-48.13-6.107-60.458c-2.651-9.486-12.571-15.213-22.114-12.769     c-5.597,1.435-11.232,3.162-16.749,5.134c-3.9,1.395-5.933,5.687-4.538,9.587c1.396,3.9,5.688,5.931,9.587,4.538     c5.084-1.817,10.272-3.408,15.425-4.729c1.701-0.44,3.471,0.586,3.943,2.276c2.965,10.607,7.286,30.234,5.958,50.958     c-5.566-1.402-11.387-2.155-17.383-2.155c-3.823,0-7.574,0.312-11.236,0.895l6.271-10.862c2.071-3.587,0.842-8.174-2.745-10.245     c-3.589-2.07-8.175-0.843-10.245,2.745l-14.675,25.418c-17.863,9.255-31.336,25.842-36.383,45.764     c-1.833,0.282-3.656,0.599-5.472,0.939c-3.273-16.453-3.808-37.91,7.43-57.373c6.338-10.978,16.053-20.735,28.875-29.005     c3.481-2.244,4.483-6.886,2.238-10.367c-2.244-3.482-6.886-4.481-10.367-2.238c-14.846,9.572-26.196,21.049-33.736,34.11     c-13.629,23.605-12.954,49.063-9.053,68.282c-22.556,6.319-43.46,17.21-61.744,32.26V135.136     c23.63-11.594,39.94-35.898,39.94-63.947C329.908,31.935,297.973,0,258.719,0c-24.028,0-45.298,11.978-58.196,30.264     c-20.728-6.32-41.161-7.135-52.009-7.026c-9.852,0.107-17.952,8.208-18.058,18.058c-0.114,10.58,0.631,26.81,4.83,44.037     c5.189,21.288,14.268,38.53,26.983,51.246c19.708,19.708,45.131,25.517,65.2,26.506v44.936     c-25.619-20.996-56.901-34.159-89.802-37.675c-10.259-26.731-36.181-45.764-66.478-45.764C31.935,124.582,0,156.518,0,195.771     c0,26.719,14.804,50.035,36.633,62.21c-9.698,23.867-11.013,49.17-10.866,62.828c0.106,9.851,8.206,17.951,18.058,18.059     c0.644,0.007,1.307,0.01,1.99,0.01c10.567,0,25.868-0.896,42.046-4.841c21.289-5.189,38.53-14.268,51.245-26.982     c19.421-19.42,25.439-44.322,26.494-64.804c36.635,17.431,61.87,54.909,61.87,97.569v58.501c-2.036-0.21-4.091-0.328-6.17-0.328     c-19.838,0-38.246,9.876-49.242,26.417c-1.238,1.862-3.396,2.975-5.771,2.975h-27.431c-4.143,0-7.5,3.357-7.5,7.5     s3.357,7.5,7.5,7.5h27.431c7.409,0,14.236-3.614,18.263-9.669c8.209-12.35,21.948-19.723,36.751-19.723     c3.891,0,7.683,0.512,11.353,1.491c0.204,0.066,0.412,0.121,0.623,0.17c2.762,0.781,5.455,1.823,8.058,3.154     c5.288,2.704,11.632,1.718,15.786-2.463c7.34-7.387,16.556-12.204,26.572-14.032c0.126-0.02,0.253-0.039,0.377-0.065     c2.865-0.5,5.789-0.77,8.757-0.77c19.535,0,37.473,11.464,45.697,29.205c3.576,7.717,11.42,12.703,19.983,12.703h28.296     c22.095,0,41.467,14.138,48.206,35.18c1.467,4.581,0.683,9.436-2.153,13.322c-2.835,3.885-7.22,6.113-12.03,6.113H96.194     c-4.811,0-9.195-2.228-12.03-6.113c-2.836-3.886-3.62-8.741-2.153-13.322c4.244-13.252,13.889-24.286,26.459-30.273     c3.74-1.781,5.328-6.257,3.547-9.996c-1.781-3.741-6.256-5.326-9.996-3.547c-16.293,7.759-28.793,22.061-34.295,39.241     c-2.944,9.193-1.369,18.939,4.321,26.738C77.738,507.527,86.54,512,96.194,512h324.632c9.654,0,18.456-4.473,24.147-12.272     c5.69-7.799,7.266-17.545,4.321-26.738c-8.735-27.278-33.849-45.605-62.491-45.605h-28.296c-2.743,0-5.245-1.574-6.374-4.011     c-10.673-23.021-33.951-37.897-59.307-37.897c-0.788,0-1.572,0.029-2.356,0.056c2.262-23.697,12.303-45.997,28.772-63.536     C336.646,303.465,359.782,291.737,384.765,288.686z M440.81,188.68c30.983,0,56.19,25.206,56.19,56.189     c0,30.983-25.206,56.189-56.19,56.189s-56.189-25.206-56.189-56.189C384.621,213.886,409.827,188.68,440.81,188.68z M258.719,15     c30.983,0,56.189,25.206,56.189,56.189c0,30.983-25.206,56.189-56.189,56.189c-30.983,0-56.19-25.206-56.19-56.189     C202.529,40.206,227.735,15,258.719,15z M172.877,125.971c-25.301-25.301-27.605-67.531-27.421-84.515     c0.018-1.756,1.463-3.2,3.22-3.219c9.42-0.116,26.654,0.552,44.378,5.469c-3.377,8.039-5.302,16.827-5.487,26.035l-5.622-5.621     c-2.928-2.928-7.677-2.929-10.606,0.001c-2.929,2.929-2.929,7.678,0.001,10.606l20.313,20.312     c6.264,17.561,19.234,31.959,35.818,40.096v12.927C210.346,147.106,189.043,142.137,172.877,125.971z M15,195.771     c0-30.983,25.206-56.189,56.189-56.189c30.983,0,56.189,25.206,56.189,56.189c0,30.983-25.206,56.189-56.189,56.189     C40.206,251.96,15,226.755,15,195.771z M128.499,296.448c-25.296,25.296-67.502,27.636-84.513,27.42     c-1.757-0.019-3.201-1.463-3.22-3.22c-0.135-12.444,1.032-35.425,9.663-56.783c6.571,2.007,13.54,3.096,20.76,3.096     c6.312,0,12.431-0.836,18.262-2.385l-22.803,22.803c-2.929,2.93-2.929,7.678,0,10.607c1.465,1.464,3.385,2.196,5.304,2.196     c1.919,0,3.839-0.732,5.304-2.196l48.011-48.011c2.509-2.51,2.862-6.353,1.07-9.246c2.096-2.567,4.023-5.277,5.75-8.122     c6.421,0.749,12.667,2.065,18.688,3.896C150.581,254.967,146.206,278.743,128.499,296.448z M308.309,311.729     c-19.628,20.903-31.246,47.751-33.076,76.15c-10.431,2.901-20.017,8.37-27.973,16.121c-1.572-0.772-3.174-1.447-4.79-2.071     V339.82c0-52.651-33.751-98.371-81.203-115.618c-0.321-0.143-0.653-0.266-0.996-0.363c-6.93-2.451-14.149-4.29-21.592-5.462     c2.387-7.108,3.701-14.704,3.701-22.606c0-3.331-0.248-6.604-0.693-9.814c32.296,4.66,62.589,19.544,86.193,42.527     c1.643,1.599,3.802,2.443,5.998,2.443c1.127,0,2.265-0.223,3.347-0.68c3.187-1.345,5.246-4.451,5.246-7.913v-81.849     c5.223,1.225,10.658,1.893,16.249,1.893s11.026-0.669,16.249-1.893v137.5c0,3.518,2.092,6.677,5.329,8.048     c1.103,0.467,2.264,0.694,3.413,0.694c2.23,0,4.422-0.855,6.093-2.474c20.511-19.885,45.383-33.457,72.673-39.801     c0.032-0.008,0.064-0.01,0.095-0.018c0.017-0.005,0.033-0.011,0.05-0.016c2.332-0.54,4.681-1.031,7.048-1.465     c-0.017,0.638-0.049,1.273-0.049,1.915c0,10.688,2.383,20.824,6.62,29.93C350.355,279.426,326.558,292.294,308.309,311.729z" fill="#FFFFFF"/>
			<circle cx="137.946" cy="470.337" r="7.261" fill="#FFFFFF"/>
		</g>
	</g>
</g>
<g>
</g>
<g>
</g>
<g>
</g>
<g>
</g>
<g>
</g>
<g>
</g>
<g>
</g>
<g>
</g>
<g>
</g>
<g>
</g>
<g>
</g>
<g>
</g>
<g>
</g>
<g>
</g>
<g>
</g>
</svg>
