<svg width="29" height="29" viewBox="0 0 29 29" version="1.1" xmlns="http://www.w3.org/2000/svg" xmlns:xlink="http://www.w3.org/1999/xlink">
<title>mouse</title>
<desc>Created using Figma</desc>
<g id="Canvas" transform="translate(-661 347)">
<g id="mouse">
<g id="Vector">
<use xlink:href="#path0_fill" transform="translate(661 -347)" fill="#FFFFFF"/>
</g>
</g>
</g>
<defs>
<path id="path0_fill" d="M 22.1502 8.01119L 22.1502 6.2102C 22.1502 2.78591 19.3912 5.63804e-09 16.0002 5.63804e-09L 15.8889 5.63804e-09C 12.4978 5.63804e-09 9.73884 2.78591 9.73884 6.2102L 9.73884 11.8204C 9.73884 14.1489 7.8628 16.0433 5.55691 16.0433L 5.45951 16.0433C 3.15342 16.0433 1.27738 14.1489 1.27738 11.8204L 1.27738 0.644937C 1.27738 0.288824 0.991352 5.63804e-09 0.638689 5.63804e-09C 0.286026 5.63804e-09 0 0.288824 0 0.644937L 0 11.8204C 0 14.8601 2.44905 17.3332 5.45941 17.3332L 5.55681 17.3332C 8.56706 17.3332 11.0161 14.8602 11.0161 11.8204L 11.0161 6.2102C 11.0161 3.49706 13.202 1.28987 15.8888 1.28987L 16.0001 1.28987C 18.6869 1.28987 20.8727 3.49717 20.8727 6.2102L 20.8727 8.01688C 17.085 8.33021 14.0973 11.5409 14.0973 15.445L 14.0973 21.5445C 14.0973 25.6556 17.4093 29 21.4804 29L 21.6166 29C 24.2563 29 26.7123 27.562 28.0263 25.2471C 28.2017 24.9381 28.0958 24.5439 27.7898 24.3669C 27.484 24.1898 27.0936 24.2967 26.9182 24.6057C 25.8311 26.5206 23.7998 27.7101 21.6166 27.7101L 21.4804 27.7101C 18.1136 27.7101 15.3746 24.9442 15.3746 21.5445L 15.3746 15.445C 15.3746 12.2524 17.7903 9.61923 20.8727 9.3102L 20.8727 10.0459L 20.8727 16.0433L 17.374 16.0433C 17.0214 16.0433 16.7354 16.332 16.7354 16.6883C 16.7354 17.0445 17.0214 17.3332 17.374 17.3332L 27.7226 17.3332L 27.7226 19.8745C 27.7226 20.2306 28.0086 20.5194 28.3613 20.5194C 28.714 20.5194 29 20.2306 29 19.8745L 29 15.445C 29.0001 11.5153 25.973 8.2884 22.1502 8.01119ZM 22.1502 16.0433L 22.1502 10.0459L 22.1502 9.30439C 25.268 9.57838 27.7227 12.2269 27.7227 15.445L 27.7227 16.0433L 22.1502 16.0433Z"/>
</defs>
</svg>
