<?xml version="1.0" encoding="iso-8859-1"?>
<!-- Generator: Adobe Illustrator 19.0.0, SVG Export Plug-In . SVG Version: 6.00 Build 0)  -->
<svg version="1.1" id="Capa_1" xmlns="http://www.w3.org/2000/svg" xmlns:xlink="http://www.w3.org/1999/xlink" x="0px" y="0px"
	 viewBox="0 0 496 496" style="enable-background:new 0 0 496 496;" xml:space="preserve">
<circle style="fill:#FFCB57;" cx="368" cy="128" r="88"/>
<g>
	
		<rect x="391.992" y="302.059" transform="matrix(-0.7071 0.7071 -0.7071 -0.7071 920.4167 290.7485)" style="fill:#E56565;" width="16" height="67.879"/>
	
		<rect x="151.992" y="62.059" transform="matrix(-0.7071 0.7071 -0.7071 -0.7071 341.0054 50.7485)" style="fill:#E56565;" width="16" height="67.879"/>
	
		<rect x="271.992" y="125.492" transform="matrix(-0.7071 0.7071 -0.7071 -0.7071 630.7111 170.7485)" style="fill:#E56565;" width="16" height="181.014"/>
</g>
<g>
	<path style="fill:#3F3A34;" d="M344,72v16h-16v80h16v16h16v-16h16v16h16v-17.472c9.288-3.312,16-12.112,16-22.528
		c0-6.144-2.32-11.752-6.128-16c3.808-4.248,6.128-9.856,6.128-16c0-10.416-6.712-19.216-16-22.528V72h-16v16h-16V72H344z M384,152
		h-40v-16h40c4.416,0,8,3.592,8,8S388.416,152,384,152z M384,120h-40v-16h40c4.416,0,8,3.592,8,8S388.416,120,384,120z"/>
	<path style="fill:#3F3A34;" d="M280,128c0,20.248,7.064,40.024,19.88,55.688l12.376-10.136C301.776,160.744,296,144.56,296,128
		c0-39.696,32.296-72,72-72c16.56,0,32.744,5.776,45.544,16.256l10.144-12.384C408.024,47.056,388.248,40,368,40
		C319.48,40,280,79.48,280,128z"/>
	<path style="fill:#3F3A34;" d="M368,200c-16.56,0-32.744-5.776-45.544-16.256l-10.144,12.384C327.976,208.944,347.752,216,368,216
		c48.52,0,88-39.48,88-88c0-20.248-7.064-40.024-19.88-55.688l-12.376,10.136C434.224,95.256,440,111.44,440,128
		C440,167.696,407.704,200,368,200z"/>
	<path style="fill:#3F3A34;" d="M361.144,0c-23.504,0-45.608,9.152-62.224,25.776L164.688,160L336,331.312l134.224-134.224
		C486.84,180.464,496,158.368,496,134.864V0H361.144z M480,134.864c0,19.232-7.496,37.312-21.088,50.912L336,308.688L187.312,160
		L310.224,37.088c13.6-13.6,31.68-21.088,50.912-21.088H480V134.864z"/>
	<path style="fill:#3F3A34;" d="M440,319.432c0,8.544-3.328,16.584-9.376,22.632L400,372.688l-42.344-42.344l-11.312,11.312
		L400,395.312l41.936-41.936c9.072-9.072,14.064-21.128,14.064-33.944V232h-16V319.432z"/>
	<path style="fill:#3F3A34;" d="M165.656,138.344L123.312,96l30.624-30.624C159.984,59.328,168.024,56,176.568,56H264V40h-87.432
		c-12.816,0-24.864,4.992-33.944,14.056L100.688,96l53.656,53.656L165.656,138.344z"/>
	
		<rect x="201.174" y="272.007" transform="matrix(-0.4472 0.8944 -0.8944 -0.4472 580.417 201.2957)" style="fill:#3F3A34;" width="53.662" height="16"/>
	
		<rect x="147.196" y="262.086" transform="matrix(-0.3364 0.9417 -0.9417 -0.3364 491.0083 256.3262)" style="fill:#3F3A34;" width="15.992" height="78.151"/>
	
		<rect x="-9.065" y="363.988" transform="matrix(-0.3282 0.9446 -0.9446 -0.3282 436.3708 433.6234)" style="fill:#3F3A34;" width="146.111" height="15.992"/>
</g>
<g>
	<path style="fill:#E56565;" d="M32,496c-17.648,0-32-14.352-32-32s14.352-32,32-32s32,14.352,32,32S49.648,496,32,496z M32,448
		c-8.824,0-16,7.176-16,16s7.176,16,16,16s16-7.176,16-16S40.824,448,32,448z"/>
	<path style="fill:#E56565;" d="M96,312c-17.648,0-32-14.352-32-32s14.352-32,32-32s32,14.352,32,32S113.648,312,96,312z M96,264
		c-8.824,0-16,7.176-16,16s7.176,16,16,16s16-7.176,16-16S104.824,264,96,264z"/>
	<path style="fill:#E56565;" d="M208,352c-17.648,0-32-14.352-32-32s14.352-32,32-32s32,14.352,32,32S225.648,352,208,352z M208,304
		c-8.824,0-16,7.176-16,16s7.176,16,16,16s16-7.176,16-16S216.824,304,208,304z"/>
</g>
<g>
	
		<rect x="204.115" y="375.992" transform="matrix(-0.7071 0.7071 -0.7071 -0.7071 735.8533 463.1843)" style="fill:#3F3A34;" width="135.767" height="16"/>
	
		<rect x="196.683" y="440" transform="matrix(-0.7071 0.7071 -0.7071 -0.7071 671.8538 617.709)" style="fill:#3F3A34;" width="22.624" height="16"/>
	
		<rect x="160.832" y="360" transform="matrix(-0.7071 0.7071 -0.7071 -0.7071 669.9677 458.4895)" style="fill:#3F3A34;" width="158.39" height="16"/>
	
		<rect x="156.718" y="431.995" transform="matrix(-0.7071 0.7071 -0.7071 -0.7071 597.9694 632.3033)" style="fill:#3F3A34;" width="22.624" height="16"/>
	
		<rect x="92.397" y="196.034" transform="matrix(-0.7071 0.7071 -0.7071 -0.7071 369.5989 254.9752)" style="fill:#3F3A34;" width="79.191" height="16"/>
	
		<rect x="126.057" y="216.001" transform="matrix(-0.7071 0.7071 -0.7071 -0.7071 431.525 269.2589)" style="fill:#3F3A34;" width="67.879" height="16"/>
</g>
<g>
</g>
<g>
</g>
<g>
</g>
<g>
</g>
<g>
</g>
<g>
</g>
<g>
</g>
<g>
</g>
<g>
</g>
<g>
</g>
<g>
</g>
<g>
</g>
<g>
</g>
<g>
</g>
<g>
</g>
</svg>
