<?xml version="1.0" encoding="iso-8859-1"?>
<!-- Generator: Adobe Illustrator 19.0.0, SVG Export Plug-In . SVG Version: 6.00 Build 0)  -->
<svg xmlns="http://www.w3.org/2000/svg" xmlns:xlink="http://www.w3.org/1999/xlink" version="1.1" id="Capa_1" x="0px" y="0px" viewBox="0 0 480.064 480.064" style="enable-background:new 0 0 480.064 480.064;" xml:space="preserve" width="512px" height="512px">
<g>
	<g>
		<g>
			<path d="M472.032,96.064H343.624c-4.328-57.217-54.22-100.091-111.437-95.763c-51.198,3.873-91.89,44.564-95.763,95.763H8.032     c-4.418,0-8,3.582-8,8v368c0,4.418,3.582,8,8,8h464c4.418,0,8-3.582,8-8v-368C480.032,99.646,476.45,96.064,472.032,96.064z      M240.032,16.064c45.47,0.06,83.421,34.722,87.592,80h-8c-4.413-43.962-43.628-76.023-87.59-71.61     c-37.863,3.801-67.809,33.747-71.61,71.61h-8C156.596,50.78,194.556,16.116,240.032,16.064z M303.48,96.064H176.584     c4.39-35.041,36.356-59.889,71.397-55.499C276.994,44.2,299.845,67.051,303.48,96.064z M464.032,464.064h-448v-352h448V464.064z" fill="#FFFFFF"/>
			<path d="M24.032,134.072v313.992c0,4.418,3.582,8,8,8h416c4.418,0,8-3.582,8-8v-314.64c3.005-3.179,2.863-8.192-0.316-11.196     c-1.484-1.402-3.451-2.177-5.492-2.164H29.272c-4.418,0.023-7.981,3.624-7.958,8.042     C21.326,130.392,22.315,132.563,24.032,134.072z M427.92,136.064l-29.144,24H264.032c-4.418,0-8,3.582-8,8h-32     c0-4.418-3.582-8-8-8H80.712l-29.144-24H427.92z M40.032,147.264l32.72,26.952c1.433,1.18,3.232,1.825,5.088,1.824h130.192     c0,4.418,3.582,8,8,8h48c4.418,0,8-3.582,8-8h129.6c1.856,0.001,3.655-0.644,5.088-1.824l33.312-27.392v293.24h-400V147.264z" fill="#FFFFFF"/>
			<path d="M240.032,200.064c-61.856,0-112,50.144-112,112s50.144,112,112,112s112-50.144,112-112     C351.966,250.235,301.86,200.13,240.032,200.064z M240.032,408.064c-53.019,0-96-42.981-96-96s42.981-96,96-96s96,42.981,96,96     C335.975,365.059,293.027,408.007,240.032,408.064z" fill="#FFFFFF"/>
			<path d="M240.032,224.064c-48.601,0-88,39.399-88,88c0,48.601,39.399,88,88,88s88-39.399,88-88     C327.975,263.486,288.609,224.121,240.032,224.064z M240.032,384.064c-39.764,0-72-32.236-72-72c0-39.765,32.236-72,72-72     c39.765,0,72,32.235,72,72C311.983,351.808,279.776,384.015,240.032,384.064z" fill="#FFFFFF"/>
			<path d="M240.032,272.064c8.837,0,16,7.163,16,16h16c-0.055-14.547-9.914-27.227-24-30.864v-9.136h-16v9.136     c-17.081,4.396-27.364,21.807-22.968,38.888c3.636,14.126,16.381,23.994,30.968,23.976c8.837,0,16,7.163,16,16s-7.163,16-16,16     s-16-7.163-16-16h-16c0.055,14.547,9.915,27.227,24,30.864v9.136h16v-9.136c17.081-4.396,27.364-21.807,22.968-38.888     c-3.636-14.126-16.381-23.994-30.968-23.976c-8.837,0-16-7.163-16-16S231.195,272.064,240.032,272.064z" fill="#FFFFFF"/>
		</g>
	</g>
</g>
<g>
</g>
<g>
</g>
<g>
</g>
<g>
</g>
<g>
</g>
<g>
</g>
<g>
</g>
<g>
</g>
<g>
</g>
<g>
</g>
<g>
</g>
<g>
</g>
<g>
</g>
<g>
</g>
<g>
</g>
</svg>
