<?xml version="1.0"?>
<svg xmlns="http://www.w3.org/2000/svg" xmlns:xlink="http://www.w3.org/1999/xlink" version="1.1" id="Capa_1" x="0px" y="0px" viewBox="0 0 512 512" style="enable-background:new 0 0 512 512;" xml:space="preserve" width="512px" height="512px" class=""><g><g>
	<g>
		<path d="M364.208,94.281C341.298,37.914,287.479,0,226,0C143.295,0,76,68.295,76,151c0,0.41,0,0.835,0.015,1.245    C33.49,159.408,0,196.483,0,241c0,39.446,26.668,72.673,62.053,84.8C72.195,227.736,155.301,151,256,151    c97.37,0,178.068,71.821,192.48,165.22C485.96,295.737,512,256.121,512,211C512,136.015,440.863,75.692,364.208,94.281z" data-original="#000000" class="active-path" data-old_color="#FDFAFA" fill="#FFFBFB"/>
	</g>
</g><g>
	<g>
		<path d="M256,182c-90.981,0-165,74.019-165,165s74.019,165,165,165s165-74.019,165-165S346.981,182,256,182z M271.396,419.29    c-0.13,0.048-0.266,0.025-0.396,0.071V437c0,8.291-6.709,15-15,15c-8.291,0-15-6.709-15-15v-17.741    c-9.878-3.338-19.345-9.671-27.437-19.319c-5.332-6.343-4.512-15.806,1.846-21.123c6.328-5.332,15.835-4.512,21.123,1.846    c7.939,9.434,16.904,13.242,24.595,10.444C267.03,388.953,271,383.284,271,377c0-8.276-6.724-15-15-15c-24.814,0-45-20.186-45-45    c0-18.12,10.781-34.395,27.466-41.455c0.824-0.35,1.701-0.33,2.534-0.628V257c0-8.291,6.709-15,15-15s15,6.709,15,15v17.948    c7.764,2.624,15.337,6.795,22.104,13.341c5.947,5.757,6.094,15.249,0.322,21.211c-5.742,5.962-15.264,6.094-21.211,0.322    c-7.295-7.061-15.366-9.507-22.046-6.65C244.604,305.53,241,310.95,241,317c0,8.276,6.724,15,15,15c24.814,0,45,20.186,45,45    C301,395.853,289.105,412.845,271.396,419.29z" data-original="#000000" class="active-path" data-old_color="#FDFAFA" fill="#FFFBFB"/>
	</g>
</g></g> </svg>
