<?xml version="1.0" encoding="iso-8859-1"?>
<!-- Generator: Adobe Illustrator 19.0.0, SVG Export Plug-In . SVG Version: 6.00 Build 0)  -->
<svg version="1.1" id="Capa_1" xmlns="http://www.w3.org/2000/svg" xmlns:xlink="http://www.w3.org/1999/xlink" x="0px" y="0px"
	 viewBox="0 0 511.998 511.998" style="enable-background:new 0 0 511.998 511.998;" xml:space="preserve">
<path style="fill:#1EA08A;" d="M387.801,123.111l-52.542-10.752l-26.658,10.166v15l52.682,10.781L316.5,208.121l-47.453-33.254
	l-26.137-4.487l11.462,30.838l47.823,33.513l-20.714,65.996l-45.732-16.155l-18.294,14.745l5.431,12.528l44.428,15.694
	l-35.896,50.087l-55.616-4.137l-36.743,13.466l15,15l77.347,5.753l87.984,101.875L421.983,399.1V228.54l90.015-125.33
	L387.801,123.111z M320.202,464.623l-62.42-72.277l37.311-52.063l88.604,55.96L320.202,464.623z M391.984,365.994l-83.075-52.468
	l22.098-70.402l60.977-3.521L391.984,365.994L391.984,365.994z M398.975,209.15l-47.834,2.762l44.702-59.705l49.757-7.973
	L398.975,209.15z"/>
<path style="fill:#24BAA5;" d="M120.587,369.382l58.261-73.095l44.041,15.557l12.863-27.274l-45.155-15.951l16.393-100.607
	l47.384,33.205l14.674-26.351l-43.893-30.759l33.339-16.837l50.108,10.255l26.658-25.167l-69.156-14.152L212.223,2.414
	L77.369,90.421L58.832,209.057L0,265.214l82.485,131.417l71.577,5.324l21.743-28.467L120.587,369.382z M201.783,45.049
	l33.841,60.161l-40.264,20.335l-72.012-29.308L201.783,45.049z M103.054,120.37l76.245,31.031l-16.728,102.66l-73.344-45.202
	L103.054,120.37z M38.429,270.007l36.424-34.768l76.64,47.234l-58.875,73.866L38.429,270.007z"/>
<g>
</g>
<g>
</g>
<g>
</g>
<g>
</g>
<g>
</g>
<g>
</g>
<g>
</g>
<g>
</g>
<g>
</g>
<g>
</g>
<g>
</g>
<g>
</g>
<g>
</g>
<g>
</g>
<g>
</g>
</svg>
