<?xml version="1.0"?>
<svg xmlns="http://www.w3.org/2000/svg" xmlns:xlink="http://www.w3.org/1999/xlink" version="1.1" id="Capa_1" x="0px" y="0px" viewBox="0 0 512 512" style="enable-background:new 0 0 512 512;" xml:space="preserve" width="512px" height="512px" class=""><g><g>
	<g transform="translate(1 1)">
		<path style="fill:#FBFBFD" d="M405.272,7.533H104.728c-2.142-0.004-4.21,0.786-5.803,2.219L7.533,92.867V459.8    c-0.119,4.59,3.502,8.408,8.092,8.533H24.6v25.6c0.014,4.707,3.826,8.52,8.533,8.533h85.333c4.707-0.014,8.52-3.826,8.533-8.533    v-25.6h256v25.6c0.014,4.707,3.826,8.52,8.533,8.533h85.333c4.707-0.014,8.52-3.826,8.533-8.533v-25.6h8.533    c4.713,0,8.533-3.821,8.533-8.533V92.867L411.075,9.752C409.482,8.32,407.414,7.529,405.272,7.533z" data-original="#E3E7F2" class="" data-old_color="#F4F6FD"/>
		<g>
			<path style="fill:#FCFCFC" d="M104.728,7.533h25.6c-2.133,0,4.352,0.768,2.73,2.219L45.029,89.809l-11.895,3.057V459.8     c-0.06,2.207,0.761,4.348,2.282,5.949c1.521,1.601,3.617,2.531,5.824,2.584h8.96v25.6c0.014,4.707,3.826,8.52,8.533,8.533h-25.6     c-4.707-0.014-8.52-3.826-8.533-8.533v-25.6h-8.96c-2.208-0.053-4.303-0.983-5.824-2.584s-2.342-3.742-2.282-5.949V92.867     L98.925,9.752C100.518,8.32,102.586,7.529,104.728,7.533z" data-original="#FFFFFF" class="" data-old_color="#00FF59"/>
			<path style="fill:#FCFCFC" d="M417.133,502.467h-25.6c-4.707-0.014-8.52-3.826-8.533-8.533v-25.6h25.6v25.6     C408.614,498.641,412.426,502.453,417.133,502.467z" data-original="#FFFFFF" class="" data-old_color="#00FF59"/>
		</g>
	</g>
	<g>
		<polygon style="fill:#FCFCFC" points="17.067,93.867 17.067,204.8 17.067,460.8 0,460.8 0,204.8 0,93.867   " data-original="#FFFFFF" class="" data-old_color="#00FF59"/>
		<g>
			<path style="fill:#FFA300" d="M8.533,170.667c2.259-0.034,4.422-0.918,6.059-2.475c3.3-3.365,3.3-8.752,0-12.117l-1.279-1.025     c-0.476-0.324-0.993-0.583-1.538-0.771c-0.484-0.246-1.003-0.417-1.538-0.509c-0.563-0.096-1.133-0.153-1.704-0.171     c-2.259,0.031-4.423,0.915-6.059,2.475c-3.222,3.397-3.222,8.721,0,12.117c0.815,0.771,1.77,1.379,2.813,1.792     C6.314,170.422,7.417,170.654,8.533,170.667z" data-original="#428DFF" class="active-path" data-old_color="#FFAA00"/>
			<path style="fill:#FFA300" d="M511.433,91.055c-0.333-1.012-0.878-1.942-1.598-2.728c-0.171-0.195-0.296-0.416-0.483-0.595     c-0.056-0.054-0.085-0.125-0.144-0.178L417.775,4.433C414.635,1.579,410.544-0.002,406.3,0H105.7     c-4.247-0.002-8.343,1.582-11.483,4.442L2.792,87.554c-0.058,0.053-0.087,0.124-0.144,0.178     c-0.188,0.179-0.312,0.398-0.482,0.594c-0.496,0.559-0.916,1.182-1.248,1.852c-0.133,0.285-0.25,0.577-0.349,0.874     c-0.259,0.735-0.414,1.503-0.461,2.281C0.096,93.519,0,93.678,0,93.867V128c0,4.713,3.821,8.533,8.533,8.533     s8.533-3.821,8.533-8.533v-25.6h477.867v358.4H17.067V196.267c0-4.713-3.821-8.533-8.533-8.533S0,191.554,0,196.267V460.8     c0.011,9.421,7.645,17.056,17.067,17.067v17.067c0.011,9.421,7.645,17.056,17.067,17.067h85.333     c9.421-0.011,17.056-7.645,17.067-17.067v-17.067h238.933v17.067c0.011,9.421,7.645,17.056,17.067,17.067h85.333     c9.421-0.011,17.056-7.645,17.067-17.067v-17.067c9.421-0.011,17.056-7.645,17.067-17.067V93.867c0-0.19-0.096-0.347-0.108-0.534     C511.845,92.556,511.691,91.789,511.433,91.055z M119.475,494.933H34.133v-17.067h85.333L119.475,494.933z M477.875,494.933     h-85.342v-17.067h85.333L477.875,494.933z M30.608,85.333L105.7,17.067h300.6l75.092,68.267H30.608z" data-original="#428DFF" class="active-path" data-old_color="#FFAA00"/>
			<path style="fill:#FFA300" d="M469.333,443.733c2.263,0.001,4.434-0.898,6.035-2.499s2.499-3.771,2.499-6.035V128     c0.001-2.263-0.898-4.434-2.499-6.035c-1.6-1.6-3.771-2.499-6.035-2.499H42.667c-2.263-0.001-4.434,0.898-6.035,2.499     c-1.6,1.6-2.499,3.771-2.499,6.035v307.2c-0.001,2.263,0.898,4.434,2.499,6.035s3.771,2.499,6.035,2.499H469.333z M51.2,136.533     h409.6v290.133H51.2V136.533z" data-original="#428DFF" class="active-path" data-old_color="#FFAA00"/>
			<path style="fill:#FFA300" d="M245.396,274.84c4.06-4.909,6.299-11.07,6.338-17.44v-2.8c-0.244-14.474-11.211-26.51-25.6-28.094     V217.6c0-4.713-3.821-8.533-8.533-8.533c-4.713,0-8.533,3.821-8.533,8.533v8.533H192V217.6c0-4.713-3.821-8.533-8.533-8.533     s-8.533,3.821-8.533,8.533v8.533H166.4c-4.713,0-8.533,3.821-8.533,8.533c0,4.713,3.821,8.533,8.533,8.533h55.925     c6.55-0.244,12.066,4.851,12.342,11.4v2.8c-0.276,6.549-5.792,11.644-12.342,11.4H192c0-4.713-3.821-8.533-8.533-8.533     s-8.533,3.82-8.533,8.533v34.133c0,4.713,3.82,8.533,8.533,8.533s8.533-3.82,8.533-8.533v-17.067h33.6     c9.346-0.342,17.211,6.931,17.6,16.275v1.583c-0.389,9.344-8.254,16.617-17.6,16.275h-59.2c-4.713,0-8.533,3.82-8.533,8.533     s3.821,8.533,8.533,8.533h8.533v8.533c0,4.713,3.82,8.533,8.533,8.533S192,350.313,192,345.6v-8.533h17.067v8.533     c0,4.713,3.821,8.533,8.533,8.533c4.713,0,8.533-3.821,8.533-8.533v-8.585c18.553,0.072,33.741-14.74,34.133-33.29v-1.583     C260.185,291.127,254.605,280.882,245.396,274.84z" data-original="#428DFF" class="active-path" data-old_color="#FFAA00"/>
			<path style="fill:#FFA300" d="M339.258,257.896c-0.392-2.229-1.653-4.211-3.507-5.51s-4.147-1.808-6.376-1.415l-17.255,3.04     c-1.793-6.976-4.267-13.759-7.386-20.251l15.183-8.768c4.08-2.358,5.477-7.575,3.121-11.656     c-2.356-4.081-7.573-5.481-11.655-3.127l-15.127,8.735c-4.085-5.937-8.736-11.465-13.885-16.506l11.246-13.408     c3.028-3.613,2.554-8.997-1.058-12.025c-3.613-3.028-8.997-2.555-12.025,1.058l-11.269,13.435     c-5.853-4.202-12.101-7.823-18.656-10.812l5.983-16.448c1.045-2.865,0.481-6.069-1.479-8.405c-1.96-2.336-5.017-3.449-8.02-2.918     c-3.003,0.531-5.494,2.624-6.534,5.49l-5.98,16.44c-6.942-1.94-14.058-3.195-21.245-3.745V153.6c0-4.713-3.821-8.533-8.533-8.533     c-4.713,0-8.533,3.821-8.533,8.533v17.499c-7.187,0.55-14.303,1.805-21.245,3.745l-5.98-16.44     c-1.04-2.866-3.532-4.959-6.534-5.49c-3.003-0.531-6.06,0.582-8.02,2.918s-2.524,5.541-1.479,8.405l5.983,16.448     c-6.555,2.989-12.804,6.61-18.656,10.812l-11.269-13.435c-3.028-3.613-8.412-4.087-12.025-1.058s-4.087,8.412-1.058,12.025     l11.246,13.408c-5.15,5.041-9.8,10.569-13.885,16.506l-15.127-8.735c-4.082-2.353-9.299-0.954-11.655,3.127     c-2.356,4.081-0.958,9.299,3.121,11.656l15.183,8.768c-3.12,6.492-5.594,13.275-7.386,20.251l-17.255-3.04     c-4.637-0.809-9.053,2.289-9.871,6.924s2.271,9.057,6.904,9.885l17.156,3.022c-0.346,3.556-0.548,7.153-0.548,10.799     c0,3.645,0.202,7.243,0.548,10.799l-17.156,3.022c-4.354,0.771-7.398,4.739-7.014,9.144c0.384,4.405,4.068,7.787,8.489,7.794     c0.5,0,0.999-0.043,1.492-0.129l17.255-3.04c1.793,6.976,4.267,13.759,7.386,20.251l-15.183,8.768     c-4.08,2.358-5.477,7.575-3.121,11.656c2.356,4.081,7.573,5.481,11.655,3.127l15.127-8.735     c4.085,5.937,8.736,11.465,13.885,16.506l-11.246,13.408c-3.028,3.613-2.555,8.997,1.058,12.025     c3.613,3.028,8.997,2.555,12.025-1.058l11.269-13.435c5.853,4.202,12.101,7.823,18.656,10.812l-5.983,16.448     c-1.045,2.865-0.481,6.069,1.479,8.405c1.96,2.336,5.017,3.449,8.02,2.918c3.003-0.531,5.494-2.624,6.534-5.49l5.98-16.44     c6.942,1.94,14.058,3.195,21.245,3.745V409.6c0,4.713,3.821,8.533,8.533,8.533c4.713,0,8.533-3.821,8.533-8.533v-17.499     c7.187-0.55,14.303-1.805,21.245-3.745l5.98,16.44c1.04,2.866,3.532,4.959,6.534,5.49c3.003,0.531,6.06-0.582,8.02-2.918     c1.96-2.336,2.524-5.541,1.479-8.405l-5.983-16.448c6.555-2.989,12.804-6.61,18.656-10.812l11.269,13.435     c3.028,3.613,8.412,4.087,12.025,1.058c3.613-3.028,4.087-8.412,1.058-12.025l-11.246-13.408     c5.15-5.041,9.8-10.569,13.885-16.506l15.127,8.735c4.082,2.353,9.299,0.954,11.655-3.127c2.356-4.081,0.958-9.298-3.121-11.656     l-15.183-8.768c3.12-6.492,5.594-13.275,7.386-20.251l17.255,3.04c0.493,0.086,0.992,0.129,1.492,0.129     c4.421-0.007,8.105-3.389,8.489-7.794c0.384-4.405-2.66-8.373-7.014-9.144l-17.156-3.022c0.346-3.556,0.548-7.154,0.548-10.799     c0-3.645-0.202-7.243-0.548-10.799l17.156-3.022c2.229-0.391,4.211-1.653,5.508-3.507S339.654,260.124,339.258,257.896z      M204.8,375.467c-51.841,0-93.867-42.026-93.867-93.867s42.026-93.867,93.867-93.867s93.867,42.026,93.867,93.867     C298.608,333.417,256.617,375.408,204.8,375.467z" data-original="#428DFF" class="active-path" data-old_color="#FFAA00"/>
			<path style="fill:#FFA300" d="M401.067,204.8c-18.342-0.062-34.657,11.644-40.473,29.04s0.18,36.561,14.873,47.541V358.4     c0,14.138,11.462,25.6,25.6,25.6c14.138,0,25.6-11.462,25.6-25.6v-77.018c14.693-10.981,20.688-30.145,14.873-47.541     C435.724,216.444,419.409,204.738,401.067,204.8z M409.6,358.4c0,4.713-3.821,8.533-8.533,8.533s-8.533-3.82-8.533-8.533v-69.129     c5.631,1.15,11.436,1.15,17.067,0V358.4z M401.067,273.067c-10.354,0-19.689-6.237-23.651-15.803     c-3.962-9.566-1.772-20.577,5.549-27.899c7.322-7.322,18.333-9.512,27.899-5.549c9.566,3.962,15.803,13.297,15.803,23.651     C426.651,261.599,415.199,273.051,401.067,273.067z" data-original="#428DFF" class="active-path" data-old_color="#FFAA00"/>
		</g>
	</g>
</g></g> </svg>
