<?xml version="1.0" encoding="iso-8859-1"?>
<!-- Generator: Adobe Illustrator 19.0.0, SVG Export Plug-In . SVG Version: 6.00 Build 0)  -->
<svg xmlns="http://www.w3.org/2000/svg" xmlns:xlink="http://www.w3.org/1999/xlink" version="1.1" id="Capa_1" x="0px" y="0px" viewBox="0 0 512 512" style="enable-background:new 0 0 512 512;" xml:space="preserve" width="512px" height="512px">
<g>
	<g>
		<path d="M486.4,51.2h-384c-4.71,0-8.533,3.823-8.533,8.533s3.823,8.533,8.533,8.533c18.825,0,34.133,15.309,34.133,34.133v383.974    c0,14.131,11.494,25.626,25.626,25.626h324.216C500.506,512,512,500.506,512,486.374V76.8C512,62.686,500.514,51.2,486.4,51.2z     M494.933,486.374c0,4.719-3.84,8.559-8.559,8.559H162.159c-4.719,0-8.559-3.84-8.559-8.559V102.4    c0-13.099-4.949-25.071-13.065-34.133H486.4c4.71,0,8.533,3.831,8.533,8.533V486.374z" fill="#FFFFFF"/>
	</g>
</g>
<g>
	<g>
		<path d="M401.067,0H25.6C11.486,0,0,11.486,0,25.6v375.467C0,419.891,15.309,435.2,34.133,435.2    c18.825,0,34.133-15.309,34.133-34.133V102.4c0-18.825,15.309-34.133,34.133-34.133h315.733c4.71,0,8.533-3.823,8.533-8.533V25.6    C426.667,11.486,415.181,0,401.067,0z M409.6,51.2H102.4c-28.228,0-51.2,22.963-51.2,51.2v298.667    c0,9.412-7.654,17.067-17.067,17.067c-9.412,0-17.067-7.654-17.067-17.067V25.6c0-4.702,3.823-8.533,8.533-8.533h375.467    c4.71,0,8.533,3.831,8.533,8.533V51.2z" fill="#FFFFFF"/>
	</g>
</g>
<g>
	<g>
		<path d="M102.4,93.867c-4.71,0-8.533,3.823-8.533,8.533v375.467c0,4.71,3.823,8.533,8.533,8.533c4.71,0,8.533-3.823,8.533-8.533    V102.4C110.933,97.69,107.11,93.867,102.4,93.867z" fill="#FFFFFF"/>
	</g>
</g>
<g>
	<g>
		<path d="M503.467,238.933h-358.4c-4.71,0-8.533,3.823-8.533,8.533v238.908c0,14.131,11.494,25.626,25.626,25.626h324.216    C500.506,512,512,500.506,512,486.374V247.467C512,242.756,508.177,238.933,503.467,238.933z M494.933,486.374    c0,4.719-3.84,8.559-8.559,8.559H162.159c-4.719,0-8.559-3.84-8.559-8.559V256h341.333V486.374z" fill="#FFFFFF"/>
	</g>
</g>
<g>
	<g>
		<path d="M213.333,85.333c-4.71,0-8.533,3.823-8.533,8.533v32.119l-17.971-35.934c-1.766-3.541-5.743-5.393-9.591-4.489    c-3.849,0.905-6.571,4.344-6.571,8.303v68.267c0,4.71,3.823,8.533,8.533,8.533s8.533-3.823,8.533-8.533v-32.12l17.971,35.934    c1.468,2.944,4.454,4.719,7.629,4.719c0.648,0,1.306-0.077,1.963-0.23c3.849-0.905,6.571-4.343,6.571-8.303V93.867    C221.867,89.156,218.044,85.333,213.333,85.333z" fill="#FFFFFF"/>
	</g>
</g>
<g>
	<g>
		<path d="M247.467,85.333c-4.71,0-8.533,3.823-8.533,8.533v68.267c0,4.71,3.823,8.533,8.533,8.533s8.533-3.823,8.533-8.533V93.867    C256,89.156,252.177,85.333,247.467,85.333z" fill="#FFFFFF"/>
	</g>
</g>
<g>
	<g>
		<path d="M281.6,153.6h-34.133c-4.71,0-8.533,3.823-8.533,8.533c0,4.71,3.823,8.533,8.533,8.533H281.6    c4.71,0,8.533-3.823,8.533-8.533C290.133,157.423,286.31,153.6,281.6,153.6z" fill="#FFFFFF"/>
	</g>
</g>
<g>
	<g>
		<path d="M281.6,119.467h-34.133c-4.71,0-8.533,3.823-8.533,8.533s3.823,8.533,8.533,8.533H281.6c4.71,0,8.533-3.823,8.533-8.533    S286.31,119.467,281.6,119.467z" fill="#FFFFFF"/>
	</g>
</g>
<g>
	<g>
		<path d="M281.6,85.333h-34.133c-4.71,0-8.533,3.823-8.533,8.533c0,4.71,3.823,8.533,8.533,8.533H281.6    c4.71,0,8.533-3.823,8.533-8.533C290.133,89.156,286.31,85.333,281.6,85.333z" fill="#FFFFFF"/>
	</g>
</g>
<g>
	<g>
		<path d="M386.074,85.581c-4.574-1.143-9.207,1.638-10.351,6.212l-8.789,35.157l-8.789-35.157c-0.947-3.797-4.361-6.46-8.277-6.46    s-7.33,2.662-8.269,6.468l-8.789,35.157l-8.789-35.157c-1.152-4.574-5.786-7.356-10.351-6.212    c-4.574,1.143-7.356,5.777-6.212,10.351l17.067,68.267c0.947,3.797,4.361,6.46,8.277,6.46c3.917,0,7.33-2.662,8.277-6.46    l8.789-35.157l8.789,35.157c0.947,3.797,4.361,6.46,8.277,6.46s7.33-2.662,8.286-6.468l17.067-68.267    C393.429,91.358,390.647,86.724,386.074,85.581z" fill="#FFFFFF"/>
	</g>
</g>
<g>
	<g>
		<path d="M452.267,119.467H435.2c-4.71,0-8.533-3.831-8.533-8.533c0-4.702,3.823-8.533,8.533-8.533h34.133    c4.71,0,8.533-3.823,8.533-8.533c0-4.71-3.823-8.533-8.533-8.533H435.2c-14.114,0-25.6,11.486-25.6,25.6s11.486,25.6,25.6,25.6    h17.067c4.71,0,8.533,3.831,8.533,8.533c0,4.702-3.823,8.533-8.533,8.533h-34.133c-4.71,0-8.533,3.823-8.533,8.533    c0,4.71,3.823,8.533,8.533,8.533h34.133c14.114,0,25.6-11.486,25.6-25.6S466.381,119.467,452.267,119.467z" fill="#FFFFFF"/>
	</g>
</g>
<g>
	<g>
		<path d="M469.333,196.267H179.2c-4.71,0-8.533,3.823-8.533,8.533c0,4.71,3.823,8.533,8.533,8.533h290.133    c4.71,0,8.533-3.823,8.533-8.533C477.867,200.09,474.044,196.267,469.333,196.267z" fill="#FFFFFF"/>
	</g>
</g>
<g>
	<g>
		<path d="M256,273.067h-68.267c-4.71,0-8.533,3.823-8.533,8.533v34.133c0,4.71,3.823,8.533,8.533,8.533H256    c4.71,0,8.533-3.823,8.533-8.533V281.6C264.533,276.89,260.71,273.067,256,273.067z M247.467,307.2h-51.2v-17.067h51.2V307.2z" fill="#FFFFFF"/>
	</g>
</g>
<g>
	<g>
		<path d="M256,426.667h-68.267c-4.71,0-8.533,3.823-8.533,8.533v34.133c0,4.71,3.823,8.533,8.533,8.533H256    c4.71,0,8.533-3.823,8.533-8.533V435.2C264.533,430.49,260.71,426.667,256,426.667z M247.467,460.8h-51.2v-17.067h51.2V460.8z" fill="#FFFFFF"/>
	</g>
</g>
<g>
	<g>
		<path d="M256,341.333h-68.267c-4.71,0-8.533,3.823-8.533,8.533v51.2c0,4.71,3.823,8.533,8.533,8.533H256    c4.71,0,8.533-3.823,8.533-8.533v-51.2C264.533,345.156,260.71,341.333,256,341.333z M247.467,392.533h-51.2V358.4h51.2V392.533z" fill="#FFFFFF"/>
	</g>
</g>
<g>
	<g>
		<path d="M401.067,281.6H290.133c-4.71,0-8.533,3.823-8.533,8.533s3.823,8.533,8.533,8.533h110.933c4.71,0,8.533-3.823,8.533-8.533    S405.777,281.6,401.067,281.6z" fill="#FFFFFF"/>
	</g>
</g>
<g>
	<g>
		<path d="M460.8,281.6h-25.6c-4.71,0-8.533,3.823-8.533,8.533s3.823,8.533,8.533,8.533h25.6c4.71,0,8.533-3.823,8.533-8.533    S465.51,281.6,460.8,281.6z" fill="#FFFFFF"/>
	</g>
</g>
<g>
	<g>
		<path d="M460.8,315.733H349.867c-4.71,0-8.533,3.823-8.533,8.533s3.823,8.533,8.533,8.533H460.8c4.71,0,8.533-3.823,8.533-8.533    S465.51,315.733,460.8,315.733z" fill="#FFFFFF"/>
	</g>
</g>
<g>
	<g>
		<path d="M315.733,315.733h-25.6c-4.71,0-8.533,3.823-8.533,8.533s3.823,8.533,8.533,8.533h25.6c4.71,0,8.533-3.823,8.533-8.533    S320.444,315.733,315.733,315.733z" fill="#FFFFFF"/>
	</g>
</g>
<g>
	<g>
		<path d="M401.067,349.867H290.133c-4.71,0-8.533,3.823-8.533,8.533s3.823,8.533,8.533,8.533h110.933    c4.71,0,8.533-3.823,8.533-8.533S405.777,349.867,401.067,349.867z" fill="#FFFFFF"/>
	</g>
</g>
<g>
	<g>
		<path d="M460.8,349.867h-25.6c-4.71,0-8.533,3.823-8.533,8.533s3.823,8.533,8.533,8.533h25.6c4.71,0,8.533-3.823,8.533-8.533    S465.51,349.867,460.8,349.867z" fill="#FFFFFF"/>
	</g>
</g>
<g>
	<g>
		<path d="M401.067,384H290.133c-4.71,0-8.533,3.823-8.533,8.533c0,4.71,3.823,8.533,8.533,8.533h110.933    c4.71,0,8.533-3.823,8.533-8.533C409.6,387.823,405.777,384,401.067,384z" fill="#FFFFFF"/>
	</g>
</g>
<g>
	<g>
		<path d="M460.8,384h-25.6c-4.71,0-8.533,3.823-8.533,8.533c0,4.71,3.823,8.533,8.533,8.533h25.6c4.71,0,8.533-3.823,8.533-8.533    C469.333,387.823,465.51,384,460.8,384z" fill="#FFFFFF"/>
	</g>
</g>
<g>
	<g>
		<path d="M460.8,418.133H349.867c-4.71,0-8.533,3.823-8.533,8.533s3.823,8.533,8.533,8.533H460.8c4.71,0,8.533-3.823,8.533-8.533    S465.51,418.133,460.8,418.133z" fill="#FFFFFF"/>
	</g>
</g>
<g>
	<g>
		<path d="M315.733,418.133h-25.6c-4.71,0-8.533,3.823-8.533,8.533s3.823,8.533,8.533,8.533h25.6c4.71,0,8.533-3.823,8.533-8.533    S320.444,418.133,315.733,418.133z" fill="#FFFFFF"/>
	</g>
</g>
<g>
	<g>
		<path d="M401.067,452.267H290.133c-4.71,0-8.533,3.823-8.533,8.533s3.823,8.533,8.533,8.533h110.933    c4.71,0,8.533-3.823,8.533-8.533S405.777,452.267,401.067,452.267z" fill="#FFFFFF"/>
	</g>
</g>
<g>
	<g>
		<path d="M460.8,452.267h-25.6c-4.71,0-8.533,3.823-8.533,8.533s3.823,8.533,8.533,8.533h25.6c4.71,0,8.533-3.823,8.533-8.533    S465.51,452.267,460.8,452.267z" fill="#FFFFFF"/>
	</g>
</g>
<g>
</g>
<g>
</g>
<g>
</g>
<g>
</g>
<g>
</g>
<g>
</g>
<g>
</g>
<g>
</g>
<g>
</g>
<g>
</g>
<g>
</g>
<g>
</g>
<g>
</g>
<g>
</g>
<g>
</g>
</svg>
